<svg width="54" height="28.441" viewBox="0 0 54 28.441" xmlns="http://www.w3.org/2000/svg"><g id="svgGroup" stroke-linecap="round" fill-rule="evenodd" font-size="9pt" stroke="#ffd60a" stroke-width="0.45mm" fill="#ffd60a" style="stroke:#ffd60a;stroke-width:0.45mm;fill:#ffd60a"><path d="M 17.84 0.32 L 21.48 0.32 L 21.48 28.2 L 17.84 28.2 L 17.84 15.56 L 3.64 15.56 L 3.64 28.2 L 0 28.2 L 0 0.32 L 3.64 0.32 L 3.64 12.56 L 17.84 12.56 L 17.84 0.32 Z" id="0" vector-effect="non-scaling-stroke"/><path d="M 53.16 8.4 L 48.8 8.4 Q 47.64 5.96 45.44 4.62 Q 43.24 3.28 40.32 3.28 A 10.935 10.935 0 0 0 36.897 3.804 A 9.863 9.863 0 0 0 35.06 4.62 A 9.462 9.462 0 0 0 31.39 8.441 A 11.296 11.296 0 0 0 31.38 8.46 Q 30.04 10.96 30.04 14.24 Q 30.04 17.52 31.38 20 Q 32.72 22.48 35.06 23.82 A 10.209 10.209 0 0 0 39.599 25.14 A 12.276 12.276 0 0 0 40.32 25.16 A 11.169 11.169 0 0 0 43.506 24.726 A 8.837 8.837 0 0 0 47.04 22.72 A 9.432 9.432 0 0 0 49.747 18.151 A 12.974 12.974 0 0 0 50.12 16.12 L 39 16.12 L 39 13.16 L 54 13.16 L 54 15.96 Q 53.68 19.4 51.84 22.26 Q 50 25.12 47 26.78 A 13.397 13.397 0 0 1 41.004 28.426 A 15.908 15.908 0 0 1 40.32 28.44 A 14.266 14.266 0 0 1 34.516 27.262 A 13.85 13.85 0 0 1 33.24 26.62 Q 30.04 24.8 28.18 21.56 A 14.095 14.095 0 0 1 26.365 15.495 A 17.088 17.088 0 0 1 26.32 14.24 A 15.359 15.359 0 0 1 27.029 9.517 A 13.75 13.75 0 0 1 28.18 6.9 Q 30.04 3.64 33.24 1.82 A 14.044 14.044 0 0 1 40.199 0.001 A 16.473 16.473 0 0 1 40.32 0 A 15.242 15.242 0 0 1 44.992 0.697 A 13.441 13.441 0 0 1 48.18 2.2 A 12.555 12.555 0 0 1 53.098 8.245 A 15.339 15.339 0 0 1 53.16 8.4 Z" id="1" vector-effect="non-scaling-stroke"/></g></svg>